<?xml version="1.0" standalone="no"?>
<!DOCTYPE svg PUBLIC "-//W3C//DTD SVG 20010904//EN"
 "http://www.w3.org/TR/2001/REC-SVG-20010904/DTD/svg10.dtd">
<svg version="1.0" xmlns="http://www.w3.org/2000/svg"
 width="300.000000pt" height="300.000000pt" viewBox="0 0 300.000000 300.000000"
 preserveAspectRatio="xMidYMid meet">
<metadata>
Created by potrace 1.14, written by Peter Selinger 2001-2017
</metadata>
<g transform="translate(0.000000,300.000000) scale(0.100000,-0.100000)"
fill="#000000" stroke="none">
<path d="M1703 2850 c-42 -10 -79 -34 -100 -66 -14 -23 -40 -118 -58 -219 -3
-16 -8 -37 -10 -45 -2 -8 -6 -26 -9 -40 -6 -35 -154 -764 -182 -895 -6 -31
-45 -226 -50 -249 -2 -12 -6 -30 -8 -41 -11 -54 -89 -433 -92 -451 -2 -11 -22
-108 -45 -215 -61 -290 -65 -323 -50 -367 26 -73 86 -112 164 -107 59 4 106
38 130 92 13 30 57 226 82 365 3 13 16 79 31 148 14 69 27 134 29 145 4 24 7
39 80 390 30 149 57 277 60 285 2 8 7 31 10 50 3 19 17 89 31 155 13 66 26
129 28 140 2 11 7 31 10 45 3 14 8 36 10 50 2 14 21 104 41 200 20 96 39 186
41 200 3 13 12 56 20 95 27 129 29 140 27 194 -2 48 -7 59 -39 92 -20 21 -48
40 -63 44 -14 3 -33 7 -41 9 -8 2 -30 0 -47 -4z"/>
<path d="M862 2290 c-47 -11 -59 -22 -277 -255 -66 -70 -133 -142 -150 -160
-272 -287 -305 -328 -305 -384 0 -63 17 -93 110 -191 19 -20 85 -90 145 -156
155 -167 147 -158 288 -307 141 -150 176 -173 245 -163 84 11 142 78 142 163
0 56 -22 88 -156 230 -113 119 -167 177 -323 343 -33 36 -61 69 -61 74 0 4 29
38 64 75 35 36 81 84 102 106 20 22 94 101 165 175 70 74 139 149 154 165 66
74 74 169 19 231 -18 20 -58 45 -79 50 -37 9 -54 10 -83 4z"/>
<path d="M2048 2290 c-94 -27 -147 -131 -111 -219 14 -34 27 -49 150 -177 37
-40 131 -138 208 -220 77 -81 150 -157 161 -169 l22 -22 -57 -61 c-96 -103
-254 -274 -291 -312 -19 -21 -64 -68 -100 -106 -89 -94 -100 -111 -100 -162 0
-117 96 -194 203 -162 44 13 93 59 287 269 58 63 121 131 140 151 158 165 258
276 273 303 24 45 22 123 -4 167 -12 19 -48 62 -79 95 -32 33 -76 79 -97 101
-21 23 -90 97 -153 164 -63 67 -132 141 -153 164 -112 121 -182 186 -206 191
-54 11 -67 12 -93 5z"/>
</g>
</svg>
